<svg xmlns="http://www.w3.org/2000/svg" viewBox="-45 -45 90 90"><path d="m-18 37c.00099-.48.25-1.9.55-3.2 1.7-7.2 3.7-11 11-22 .89-1.3 2-3.2 2.4-4.3.6-1.7.86-2 1.6-2.3 3.6-1.5 6.7-7.5 6.7-13 .0046-2.5-.28-2.7-.74-.68-1.8 7.8-6.8 12-16 12-6 .36-6.3.49-9.3 4.3-3.4 4.3-3.1 4-6.4 4.5-3.6.56-3.2.74-7.1-3l-3.1-2.9.0041-3.5.004-3.5 3.2-4c1.8-2.2 5-6.1 7.4-8.7l4.2-4.7.46-2.2c.26-1.2.51-2.2.57-2.3.43-.4 4.8-3.9 8.1-6.2l3.9-3v-2.4c0-1.8-.24-3.4-.96-6.3-1.4-5.5-1.5-5.4 4.7-1.3l5 3.4 3.4.36c3.7.39 8.5 1.4 9.2 1.9.38.28.24.68-1.1 3.4-1.8 3.6-1.8 3.5-.83 3.9 1.1.48.99.5 3.3-2.6 1.2-1.6 2.3-2.9 2.6-2.9 1.2 0 8.9 5.7 9.4 6.9.25.63.2.67-2.9 2.9-3.3 2.4-3.2 2.3-2.3 3.3l.76.84 3.2-1.9c1.7-1.1 3.3-1.9 3.5-1.9 1.3 0 6.9 11 6 12-.22.16-1.9.65-3.7 1.1-2.7.63-3.3.88-3.2 1.2.069.24.21.76.31 1.2.21.89.11.88 4.4.31 1.9-.25 3.4-.39 3.5-.3 1.1 1.1 2.3 15 1.4 16-.24.19-1.4-.0044-3.7-.62-1.8-.49-3.3-.87-3.4-.83-.037.037-.14.61-.24 1.3l-.17 1.2 3.5 1.4c4.3 1.7 4.1.91 2.7 8.8-1.3 7.1-2.2 12-1.3 16 .27 1.2-1.2 2.8-1.3 2.9-.11.18-23 7.1-26 7.1-3.2 0-24-6.4-24-6.4zm2.4-50 2.3-.75 1.3-2.6c1.6-3.2 1.6-3.2-2.2-1.4l-3.2 1.4-.66 2c-.64 1.9-.65 2.4-.046 2.2.16-.057 1.3-.44 2.6-.86zm-.061-17c-.29-.46-2.6-9.9-2.4-9.9.35-.35.99-.06 3.2 1.4 2.6 1.7 2.6 1.8 2.6 4.6l-.0047 1.9-1.3.95c-1.7 1.3-2 1.4-2.1 1.2z"/></svg>
